<svg viewBox="0 -40 1232 220" version="1.1" xmlns="http://www.w3.org/2000/svg" xmlns:xlink="http://www.w3.org/1999/xlink">
    <style type="text/css">
        .st1-works{fill:#ffffff;font-size:1.1rem;}
        .st2-works{fill:#010202;font-size:.938rem;}
        .st3-works{font-family:'cera_proregular',Helvetica,Roboto,Arial,sans-serif;}
        .st4-works{font-weight:700;}
        .st5-works{fill:#010202;font-size:1.1rem;}
    </style>
    <g stroke="none" stroke-width="1" fill="none" fill-rule="evenodd">
        <g transform="translate(-101.000000, -1184.000000)">
            <g transform="translate(175.000000, 1184.000000)">
                <g transform="translate(67.880000, 55.000000)" stroke-linecap="round" stroke-linejoin="round" stroke-width="2">
                    <line x1="878.93" y1="-67.69" x2="878.93" y2="71.31" stroke="#000000" fill="#000000" transform="translate(879.370000, 1.560000) rotate(-90.000000) translate(-879.370000, -1.560000) "></line>
                    <line x1="70.5" y1="-68.38" x2="70.5" y2="71.62" stroke="#00AFAB" transform="translate(70.500000, 2.000000) rotate(-90.000000) translate(-70.500000, -2.000000) "></line>
                    <line x1="474.62" y1="-263.88" x2="474.62" y2="267.5" stroke="#00AFAB" transform="translate(474.620000, 2.000000) rotate(-90.000000) translate(-474.620000, -2.000000) "></line>
                </g>
                <g transform="translate(0.000000, 19.000000)">
                    <g transform="translate(15.500000, 17.000000)" fill="#000000" fill-rule="nonzero">
                        <path d="M34.5988201,5.88516858 L28.4867257,5.88516858 C28.8141593,5.34069406 29.0324484,4.68732462 29.0324484,3.81616538 C29.0324484,1.63826728 27.3952802,0.00484369732 25.4306785,0.00484369732 C21.9380531,0.00484369732 19.5368732,3.05390105 18.4454277,5.01400934 C17.3539823,3.16279595 14.8436578,0.00484369732 11.460177,0.00484369732 C9.38643068,-0.104051208 7.74926254,1.63826728 7.74926254,3.70727048 C7.74926254,4.57842972 7.96755162,5.23179915 8.29498525,5.77627368 L2.2920354,5.77627368 C0.982300885,5.88516858 0,6.86522273 0,8.17196159 L0,12.9633374 C0,14.1611814 0.982300885,15.1412355 2.2920354,15.1412355 L2.61946903,15.1412355 C2.51032448,15.3590253 2.51032448,15.5768152 2.51032448,15.9034999 L2.51032448,30.713207 C2.51032448,32.0199459 3.49262537,33 4.80235988,33 L32.1976401,33 C33.5073746,33 34.4896755,32.0199459 34.4896755,30.713207 L34.4896755,15.9034999 C34.4896755,15.6857101 34.4896755,15.3590253 34.380531,15.1412355 L34.7079646,15.1412355 C36.0176991,15.1412355 37,14.1611814 37,12.8544425 L37,8.17196159 C36.8908555,6.86522273 35.9085546,5.88516858 34.5988201,5.88516858 Z M25.4306785,1.74716218 C26.4129794,1.74716218 27.2861357,2.61832142 27.2861357,3.81616538 C27.2861357,5.66737877 25.8672566,5.77627368 25.4306785,5.77627368 L19.9734513,5.77627368 C21.0648968,4.1428501 22.920354,1.74716218 25.4306785,1.74716218 Z M11.460177,1.74716218 C13.9705015,1.74716218 15.9351032,4.251745 16.9174041,5.77627368 L11.460177,5.77627368 C11.0235988,5.77627368 9.60471976,5.66737877 9.60471976,3.81616538 C9.60471976,2.61832142 10.3687316,1.74716218 11.460177,1.74716218 Z M21.1740413,14.3789712 L21.1740413,14.3789712 L21.1740413,14.3789712 L21.1740413,31.4754713 L15.7168142,31.4754713 L15.7168142,7.40969726 L17.1356932,7.40969726 L19.7551622,7.40969726 L21.1740413,7.40969726 L21.1740413,14.3789712 Z M1.5280236,12.8544425 L1.5280236,8.17196159 C1.5280236,7.73638197 1.85545723,7.40969726 2.2920354,7.40969726 L11.460177,7.40969726 L11.460177,7.40969726 L14.1887906,7.40969726 L14.1887906,13.7256018 L2.2920354,13.7256018 C1.85545723,13.6167069 1.5280236,13.2900221 1.5280236,12.8544425 Z M4.03834808,30.713207 L4.03834808,15.9034999 C4.03834808,15.4679202 4.36578171,15.1412355 4.80235988,15.1412355 L14.1887906,15.1412355 L14.1887906,31.4754713 L4.80235988,31.4754713 C4.36578171,31.4754713 4.03834808,31.1487866 4.03834808,30.713207 Z M32.8525074,15.9034999 L32.8525074,30.713207 C32.8525074,31.1487866 32.5250737,31.4754713 32.0884956,31.4754713 L22.7020649,31.4754713 L22.7020649,15.1412355 L32.0884956,15.1412355 C32.5250737,15.1412355 32.8525074,15.4679202 32.8525074,15.9034999 Z M35.3628319,12.8544425 C35.3628319,13.2900221 35.0353982,13.6167069 34.5988201,13.6167069 L32.1976401,13.6167069 L32.1976401,13.6167069 L22.8112094,13.6167069 L22.8112094,7.40969726 L25.539823,7.40969726 L25.539823,7.40969726 L34.7079646,7.40969726 C35.1445428,7.40969726 35.4719764,7.73638197 35.4719764,8.17196159 L35.3628319,12.8544425 L35.3628319,12.8544425 Z"></path>
                    </g>
                    <circle stroke="#1D1D1B" stroke-width="2" cx="34" cy="34" r="34"></circle>
                </g>
                <text transform="matrix(1 0 0 1 33 -10)" class="st5-works st3-works" text-anchor="middle">TAG 1</text>
                <text transform="matrix(1 0 0 1 33 7)" class="st2-works st3-works st4-works" text-anchor="middle">DEIN TESTPAKET</text>
                <text transform="matrix(1 0 0 1 33 120)" class="st2-works st3-works" text-anchor="middle">Wir zahlen die Produkte,</text>
                <text transform="matrix(1 0 0 1 33 137)" class="st2-works st3-works" text-anchor="middle">Du nur den Versand.</text>
                <text transform="matrix(1 0 0 1 33 154)" class="st2-works st3-works" text-anchor="middle"></text>
                <text transform="matrix(1 0 0 1 33 171)" class="st2-works st3-works" text-anchor="middle"></text>
                <g transform="translate(207.000000, 23.000000)" fill="#000000" fill-rule="nonzero">
                    <path d="M35,0 C15.7,0 0,15.7 0,35 C0,54.3 15.7,70 35,70 C54.3,70 70,54.3 70,35 C70,15.7 54.3,0 35,0 Z M35,68 C16.8,68 2,53.2 2,35 C2,16.8 16.8,2 35,2 C53.2,2 68,16.8 68,35 C68,53.2 53.2,68 35,68 Z M52.6,18.8 L49.5,18.8 L49.5,17.7 C49.5,16 48.1,14.6 46.4,14.6 C44.7,14.6 43.3,16 43.3,17.7 L43.3,18.8 L38.4,18.8 L38.4,17.7 C38.4,16 37,14.6 35.3,14.6 C33.6,14.6 32.2,16 32.2,17.7 L32.2,18.8 L27.3,18.8 L27.3,17.7 C27.3,16 25.9,14.6 24.2,14.6 C22.5,14.6 21.1,16 21.1,17.7 L21.1,18.8 L18,18.8 C15.9,18.8 14.3,20.5 14.3,22.5 L14.3,50.1 C14.3,52.2 16,53.8 18,53.8 L37.3,53.8 C37.8,53.8 38.3,53.4 38.3,52.8 C38.3,52.3 37.9,51.8 37.3,51.8 L18.1,51.8 C17.1,51.8 16.3,51 16.3,50 L16.3,29 L54.3,29 L54.3,40.4 C54.3,40.9 54.7,41.4 55.3,41.4 C55.9,41.4 56.3,41 56.3,40.4 L56.3,22.5 C56.4,20.4 54.7,18.8 52.6,18.8 Z M24.4,24.9 C26.1,24.9 27.5,23.5 27.5,21.8 L27.5,20.7 L32.4,20.7 L32.4,21.8 C32.4,23.5 33.8,24.9 35.5,24.9 C37.2,24.9 38.6,23.5 38.6,21.8 L38.6,20.7 L43.5,20.7 L43.5,21.8 C43.5,23.5 44.9,24.9 46.6,24.9 C48.3,24.9 49.7,23.5 49.7,21.8 L49.7,20.7 L52.8,20.7 C53.8,20.7 54.6,21.5 54.6,22.5 L54.6,27 L16.6,27 L16.6,22.5 C16.6,21.5 17.4,20.7 18.4,20.7 L21.5,20.7 L21.5,21.8 C21.3,23.5 22.7,24.9 24.4,24.9 Z M47.5,21.8 C47.5,22.4 47,22.9 46.4,22.9 C45.8,22.9 45.3,22.4 45.3,21.8 L45.3,17.7 C45.3,17.1 45.8,16.6 46.4,16.6 C47,16.6 47.5,17.1 47.5,17.7 L47.5,21.8 Z M36.5,21.8 C36.5,22.4 36,22.9 35.4,22.9 C34.8,22.9 34.3,22.4 34.3,21.8 L34.3,17.7 C34.3,17.1 34.8,16.6 35.4,16.6 C36,16.6 36.5,17.1 36.5,17.7 L36.5,21.8 Z M25.4,21.8 C25.4,22.4 24.9,22.9 24.3,22.9 C23.7,22.9 23.2,22.4 23.2,21.8 L23.2,17.7 C23.2,17.1 23.7,16.6 24.3,16.6 C24.9,16.6 25.4,17.1 25.4,17.7 L25.4,21.8 Z M34.3,33.5 C34.3,32.6 33.5,31.8 32.6,31.8 L29.8,31.8 C28.9,31.8 28.1,32.6 28.1,33.5 L28.1,35.6 C28.1,36.5 28.9,37.3 29.8,37.3 L32.6,37.3 C33.5,37.3 34.3,36.5 34.3,35.6 L34.3,33.5 Z M32.3,33.8 L32.3,35.3 L30.1,35.3 L30.1,33.8 L32.3,33.8 Z M26,33.5 C26,32.6 25.2,31.8 24.3,31.8 L21.5,31.8 C20.6,31.8 19.8,32.6 19.8,33.5 L19.8,35.6 C19.8,36.5 20.6,37.3 21.5,37.3 L24.3,37.3 C25.2,37.3 26,36.5 26,35.6 L26,33.5 Z M24.1,33.8 L24.1,35.3 L21.9,35.3 L21.9,33.8 L24.1,33.8 Z M49.2,37.3 C50.1,37.3 50.9,36.5 50.9,35.6 L50.9,33.5 C50.9,32.6 50.1,31.8 49.2,31.8 L46.4,31.8 C45.5,31.8 44.7,32.6 44.7,33.5 L44.7,35.6 C44.7,36.5 45.5,37.3 46.4,37.3 L49.2,37.3 Z M46.7,35.3 L46.7,33.8 L48.9,33.8 L48.9,35.3 L46.7,35.3 Z M34.3,39.7 C34.3,38.8 33.5,38 32.6,38 L29.8,38 C28.9,38 28.1,38.8 28.1,39.7 L28.1,41.8 C28.1,42.7 28.9,43.5 29.8,43.5 L32.6,43.5 C33.5,43.5 34.3,42.7 34.3,41.8 L34.3,39.7 Z M32.3,40 L32.3,41.5 L30.1,41.5 L30.1,40 L32.3,40 Z M26,39.7 C26,38.8 25.2,38 24.3,38 L21.5,38 C20.6,38 19.8,38.8 19.8,39.7 L19.8,41.8 C19.8,42.7 20.6,43.5 21.5,43.5 L24.3,43.5 C25.2,43.5 26,42.7 26,41.8 L26,39.7 Z M24.1,40 L24.1,41.5 L21.9,41.5 L21.9,40 L24.1,40 Z M32.6,44.3 L29.8,44.3 C28.9,44.3 28.1,45.1 28.1,46 L28.1,48 C28.1,48.9 28.9,49.7 29.8,49.7 L32.6,49.7 C33.5,49.7 34.3,48.9 34.3,48 L34.3,45.9 C34.3,45 33.5,44.3 32.6,44.3 Z M32.3,46.2 L32.3,47.7 L30.1,47.7 L30.1,46.2 L32.3,46.2 Z M38.1,37.3 L40.9,37.3 C41.8,37.3 42.6,36.5 42.6,35.6 L42.6,33.5 C42.6,32.6 41.8,31.8 40.9,31.8 L38.1,31.8 C37.2,31.8 36.4,32.6 36.4,33.5 L36.4,35.6 C36.5,36.5 37.2,37.3 38.1,37.3 Z M38.4,35.3 L38.4,33.8 L40.6,33.8 L40.6,35.3 L38.4,35.3 Z M24.4,44.3 L21.6,44.3 C20.7,44.3 19.9,45.1 19.9,46 L19.9,48 C19.9,48.9 20.7,49.7 21.6,49.7 L24.4,49.7 C25.3,49.7 26.1,48.9 26.1,48 L26.1,45.9 C26,45 25.3,44.3 24.4,44.3 Z M24.1,46.2 L24.1,47.7 L21.9,47.7 L21.9,46.2 L24.1,46.2 Z M47.1,38.1 C43.7,38.1 40.7,40 39.1,42.7 C39.1,42.6 39.1,42.6 39.1,42.5 C39.1,42.1 38.8,41.7 38.4,41.6 L38.4,40 L40.9,40 C41.4,40 41.9,39.6 41.9,39 C41.9,38.4 41.5,38 40.9,38 L38.1,38 C37.2,38 36.4,38.8 36.4,39.7 L36.4,41.8 C36.4,42.7 37.2,43.5 38.1,43.5 C38.4,43.5 38.6,43.4 38.8,43.2 C38.2,44.4 37.8,45.8 37.8,47.3 C37.8,52.4 42,56.6 47.1,56.6 C52.2,56.6 56.4,52.4 56.4,47.3 C56.4,42.2 52.2,38.1 47.1,38.1 Z M54.4,47.3 C54.4,51.3 51.1,54.6 47.1,54.6 C43.1,54.6 39.8,51.3 39.8,47.3 C39.8,43.3 43.1,40 47.1,40 C51.1,40 54.4,43.3 54.4,47.3 Z M52,48.1 C52,48.6 51.7,49.1 51.1,49.2 L47,49.6 C47,49.6 46.9,49.6 46.9,49.6 C46.7,49.6 46.5,49.5 46.3,49.4 C46.1,49.2 46,49 45.9,48.7 L45.2,42.6 C45.2,42.3 45.3,42.1 45.4,41.9 C45.5,41.7 45.8,41.6 46.1,41.5 C46.7,41.4 47.1,41.8 47.2,42.4 L47.8,47.5 L50.9,47.2 C51.5,47.2 51.9,47.6 52,48.1 Z"></path>
                </g>
                <text transform="matrix(1 0 0 1 240 -10)" class="st5-works st3-works" text-anchor="middle">TAG 3</text>
                <text transform="matrix(1 0 0 1 240 7)" class="st2-works st3-works st4-works" text-anchor="middle">DEINE TESTPHASE</text>
                <text transform="matrix(1 0 0 1 240 120)" class="st2-works st3-works" text-anchor="middle">Dein Testpaket ist da</text>
                <text transform="matrix(1 0 0 1 240 137)" class="st2-works st3-works" text-anchor="middle">und Dein flexibles</text>
                <text transform="matrix(1 0 0 1 240 154)" class="st2-works st3-works" text-anchor="middle">Windel-Abo wird</text>
                <text transform="matrix(1 0 0 1 240 171)" class="st2-works st3-works" text-anchor="middle">automatisch erstellt.</text>
                <g transform="translate(807.000000, 21.000000)" fill="#000000" fill-rule="nonzero">
                    <path d="M35,0 C15.6700338,0 0,15.6700338 0,35 C0,54.3299662 15.6700338,70 35,70 C54.3299662,70 70,54.3299662 70,35 C70,25.7174229 66.3125106,16.8150359 59.7487373,10.2512627 C53.1849641,3.68748941 44.2825771,0 35,0 Z M35,68 C16.7746033,68 2,53.2253967 2,35 C2,16.7746033 16.7746033,2 35,2 C53.2253967,2 68,16.7746033 68,35 C68,43.7521442 64.5232243,52.1458233 58.3345238,58.3345238 C52.1458233,64.5232243 43.7521442,68 35,68 Z M48,29.1 C50.5496273,24.4730043 49.3143533,18.675736 45.1,15.49 C44.84,15.29 44.57,15.11 44.3,14.93 C43.1253424,14.1569836 41.8212607,13.6014787 40.45,13.29 C39.0864552,12.9728286 37.6758448,12.9117926 36.29,13.11 C33.8923195,13.5145319 31.66852,14.6212115 29.9,16.29 C28.7370382,17.3178369 27.7268382,18.5065056 26.9,19.82 C26.2959267,20.8649117 26.6065543,22.1992977 27.61,22.87 L29.21,23.87 C30.2298176,24.5195182 31.579766,24.2556846 32.28,23.27 C33.05,22.16 34.65,20.27 35.65,19.76 C37.2145616,19.0057284 39.0521136,19.0807305 40.55,19.96 L40.69,20.05 C42.0866533,20.9359598 42.8940819,22.5087236 42.8,24.16 C42.72,25.66 41.68,27.16 40.23,29.1 L22.23,29.1 C21.6298645,29.0943467 21.0532381,29.3330138 20.6326483,29.7611479 C20.2120584,30.1892819 19.9836794,30.7700598 20,31.37 L20,52.11 C20,53.3305493 20.9894507,54.32 22.21,54.32 L48,54.32 C49.2205493,54.32 50.21,53.3305493 50.21,52.11 L50.21,31.29 C50.2070258,30.7027536 49.9693906,30.1410702 49.55,29.73 C49.1402372,29.3183568 48.5807528,29.0909535 48,29.1 Z M48.19,52.1 C48.1849341,52.2138154 48.0938154,52.3049341 47.98,52.31 L22.21,52.31 C22.0940202,52.31 22,52.2159798 22,52.1 L22,31.37 C22.0050659,31.2561846 22.0961846,31.1650659 22.21,31.16 L40.73,31.16 C41.0626261,31.1605011 41.3737296,30.9955788 41.56,30.72 C43.3,28.37 44.67,26.51 44.78,24.33 C44.9369184,21.9675469 43.784857,19.7095065 41.78,18.45 L41.56,18.31 C39.5023668,17.0758096 36.9619546,16.9593114 34.8,18 C32.99,18.83 30.86,21.84 30.63,22.18 C30.5482171,22.2832204 30.4021734,22.3089928 30.29,22.24 L28.69,21.24 C28.5798434,21.1641189 28.5452364,21.0170388 28.61,20.9 C29.3320539,19.7862441 30.2035147,18.7768301 31.2,17.9 C32.6823862,16.4833072 34.5508171,15.5369139 36.57,15.18 C38.894557,14.8617422 41.25539,15.4021739 43.21,16.7 L43.9,17.18 C47.3318698,19.7990454 48.2902074,24.5565074 46.14,28.3 C46.0843677,28.3832929 46.0342601,28.4701461 45.99,28.56 L45.99,28.56 C45.29,29.56 45.13,30.05 45.4,30.56 C45.5757548,30.90944 45.9391129,31.1243292 46.33,31.11 L46.33,31.11 L47.98,31.11 C48.03,31.11 48.09,31.11 48.12,31.17 C48.1607253,31.2003758 48.1833065,31.2493018 48.18,31.3 L48.19,52.1 Z M34.64,33 C32.1252609,32.9553927 30.0492452,34.9553474 30,37.47 C30.0046911,38.7012034 30.52736,39.8735788 31.44,40.7 L30.56,47.7 C30.5251795,47.9870946 30.6163537,48.275205 30.81,48.49 C30.9995698,48.7057843 31.2727728,48.8296363 31.56,48.83 L37.73,48.83 C38.0172272,48.8296363 38.2904302,48.7057843 38.48,48.49 C38.6700509,48.2735257 38.7575191,47.9856094 38.72,47.7 L37.85,40.7 C38.7595835,39.871367 39.2816208,38.7004083 39.29,37.47 C39.2353232,34.9537595 37.1564383,32.9553476 34.64,33 L34.64,33 Z M36.22,39.45 C35.9098357,39.660956 35.7438138,40.0277486 35.79,40.4 L36.6,46.84 L32.69,46.84 L33.49,40.4 C33.5383375,40.0297559 33.3763793,39.6634219 33.07,39.45 C32.3995501,39.0058233 31.9974488,38.2542322 31.9999879,37.45 C32.0859834,36.0522733 33.2446311,34.9627114 34.645,34.9627114 C36.0453689,34.9627114 37.2040166,36.0522733 37.2900121,37.45 C37.2925512,38.2542322 36.8904499,39.0058233 36.22,39.45 Z"></path>
                </g>
                <text transform="matrix(1 0 0 1 843 -10)" class="st5-works st3-works" text-anchor="middle">TAG 10</text>
                <text transform="matrix(1 0 0 1 843 7)" class="st2-works st3-works st4-works" text-anchor="middle">DEINE FLEXIBILITÄT</text>
                <text transform="matrix(1 0 0 1 843 120)" class="st2-works st3-works" text-anchor="middle">Passe Dein Abo und Liefertermin</text>
                <text transform="matrix(1 0 0 1 843 137)" class="st2-works st3-works" text-anchor="middle">bis zu 5 Tage vor Lieferung</text>
                <text transform="matrix(1 0 0 1 843 154)" class="st2-works st3-works" text-anchor="middle">der ersten Monatsbox an.</text>
                <text transform="matrix(1 0 0 1 843 171)" class="st2-works st3-works" text-anchor="middle"></text>
                <g transform="translate(1017.000000, 15.000000)" fill="#000000" fill-rule="nonzero">
                    <path d="M35,0 C15.6700338,0 0,15.6700338 0,35 C0,54.3299662 15.6700338,70 35,70 C54.3299662,70 70,54.3299662 70,35 C70,25.7174229 66.3125106,16.8150359 59.7487373,10.2512627 C53.1849641,3.68748941 44.2825771,0 35,0 Z M35,68 C16.7746033,68 2,53.2253967 2,35 C2,16.7746033 16.7746033,2 35,2 C53.2253967,2 68,16.7746033 68,35 C68,43.7521442 64.5232243,52.1458233 58.3345238,58.3345238 C52.1458233,64.5232243 43.7521442,68 35,68 Z M46.51,17.46 C45.7954952,16.587767 44.7460506,16.0575978 43.62,16 L27.84,16 C26.7226561,16.0449691 25.6718736,16.5432783 24.93,17.38 L19.06,24.57 C18.4036758,25.4356452 18.0331929,26.4841818 17.9999783,27.57 L17.9999783,49.85 C17.9973403,50.4643809 18.23954,51.0545107 18.6730376,51.489885 C19.1065353,51.9252592 19.6956134,52.17 20.31,52.17 L50.46,52.17 C51.0726519,52.1673536 51.6591592,51.9214376 52.0904941,51.4863519 C52.521829,51.0512663 52.7626579,50.4626518 52.7600218,49.85 L52.7600218,27.53 C52.7179152,26.4554011 52.3710915,25.41493 51.76,24.53 L46.51,17.46 Z M36.38,18 L43.62,18 C44.1124045,18.0507949 44.5684762,18.2823939 44.9,18.65 L50,25.5 L36.38,25.5 L36.38,18 Z M26.48,18.65 C26.8405726,18.2770524 27.3233218,18.0463267 27.84,18 L34.38,18 L34.38,25.5 L20.88,25.5 L26.48,18.65 Z M50.7600006,49.85 C50.7603308,50.0192064 50.6288759,50.1594249 50.46,50.17 L20.31,50.17 C20.137186,50.1645969 20,50.0228984 20,49.85 L20,27.5 L50.7600006,27.5 L50.7600006,49.85 L50.7600006,49.85 Z M43.36,43 L45.03,43.87 L41.28,45 L40.09,41.23 L41.59,42.01 C42.6835393,39.7274834 42.5275836,37.0432077 41.1770672,34.90269 C39.8265509,32.7621724 37.4709468,31.4657203 34.94,31.47 C34.74,31.47 34.54,31.47 34.34,31.47 C33.9827344,31.5003676 33.6364065,31.3378295 33.4314746,31.0436122 C33.2265427,30.7493949 33.1941409,30.368197 33.3464746,30.0436122 C33.4988083,29.7190273 33.8127344,29.5003676 34.17,29.47 C34.4264425,29.4548308 34.6835575,29.4548308 34.94,29.47 C38.1879526,29.4560282 41.2109711,31.1268439 42.9270824,33.8844432 C44.6431937,36.6420424 44.807048,40.0921754 43.36,43 Z M37.57,47.16 C37.5920876,47.4254081 37.5073914,47.6886626 37.3346882,47.8914011 C37.1619851,48.0941396 36.915544,48.2196115 36.65,48.2400055 C36.4,48.2400055 36.14,48.2400055 35.89,48.2400055 C32.6646273,48.2434758 29.6641938,46.5878358 27.94745,43.8572989 C26.2307062,41.126762 26.0390083,37.7052131 27.44,34.8 L25.73,33.91 L29.49,32.72 L30.67,36.49 L29.21,35.73 C28.7555987,36.7002808 28.5200402,37.7585872 28.52,38.83 C28.5199851,42.9035866 31.8164284,46.2089754 35.89,46.22 C36.09,46.22 36.3,46.22 36.5,46.22 C37.0384692,46.1790909 37.5121494,46.5730866 37.57,47.11 L37.57,47.16 Z"></path>
                </g>
                <text transform="matrix(1 0 0 1 1052 -10)" class="st5-works st3-works" text-anchor="middle">TAG 14</text>
                <text transform="matrix(1 0 0 1 1052 7)" class="st2-works st3-works st4-works" text-anchor="middle">DEIN WINDEL-ABO</text>
                <text transform="matrix(1 0 0 1 1052 120)" class="st2-works st3-works" text-anchor="middle">Erhalte Deine erste</text>
                <text transform="matrix(1 0 0 1 1052 137)" class="st2-works st3-works" text-anchor="middle">LILLYDOO Monatsbox.</text>
                <text transform="matrix(1 0 0 1 1052 154)" class="st2-works st3-works" text-anchor="middle"></text>
                <text transform="matrix(1 0 0 1 1052 171)" class="st2-works st3-works" text-anchor="middle"></text>
                <circle fill="#00AFAB" cx="534.5" cy="57.5" r="57.5"></circle>
                <text transform="matrix(1 0 0 1 535 43)" class="st1-works st3-works" text-anchor="middle">7</text>
                <text transform="matrix(1 0 0 1 535 63)" class="st1-works st3-works" text-anchor="middle">TAGE</text>
                <text transform="matrix(1 0 0 1 535 83)" class="st1-works st3-works" text-anchor="middle">TESTPHASE</text>
            </g>
        </g>
    </g>
</svg>