<svg viewBox="0 -20 420 690" version="1.1" xmlns="http://www.w3.org/2000/svg" xmlns:xlink="http://www.w3.org/1999/xlink">
    <style type="text/css">
        .st1-works-mobile{fill:#ffffff;font-size:1rem;}
        .st2-works-mobile{fill:#010202;font-size:.938rem;}
        .st3-works-mobile{font-family:'cera_proregular',Helvetica,Roboto,Arial,sans-serif;}
        .st4-works-mobile{font-weight:700;}
        .st5-works-mobile{fill:#010202;font-size:1.1rem;}
    </style>
    <g stroke="none" stroke-width="1" fill="none" fill-rule="evenodd">
        <g transform="translate(-9.000000, -1703.000000)">
            <g transform="translate(9.500000, 1704.000000)">
                <g transform="translate(49.190000, 69.000000)" stroke-linecap="round" stroke-linejoin="round" stroke-width="2">
                    <line x1="0.81" y1="131.5" x2="0.81" y2="372.5" stroke="#00AFAB"></line>
                    <line x1="1.31" y1="444" x2="1.62" y2="508" stroke="#000000" fill="#000000"></line>
                    <line x1="1.69" y1="0" x2="1.31" y2="61" stroke="#00AFAB"></line>
                </g>
                <g>
                    <path d="M51.5,576 C32.1700338,576 16.5,591.670034 16.5,611 C16.5,630.329966 32.1700338,646 51.5,646 C70.8299662,646 86.5,630.329966 86.5,611 C86.5,601.717423 82.8125106,592.815036 76.2487373,586.251263 C69.6849641,579.687489 60.7825771,576 51.5,576 Z M51.5,644 C33.2746033,644 18.5,629.225397 18.5,611 C18.5,592.774603 33.2746033,578 51.5,578 C69.7253967,578 84.5,592.774603 84.5,611 C84.5,619.752144 81.0232243,628.145823 74.8345238,634.334524 C68.6458233,640.523224 60.2521442,644 51.5,644 Z M63.01,593.46 C62.2954952,592.587767 61.2460506,592.057598 60.12,592 L44.34,592 C43.2226561,592.044969 42.1718736,592.543278 41.43,593.38 L35.56,600.57 C34.9036758,601.435645 34.5331929,602.484182 34.4999783,603.57 L34.4999783,625.85 C34.4973403,626.464381 34.73954,627.054511 35.1730376,627.489885 C35.6065353,627.925259 36.1956134,628.17 36.81,628.17 L66.96,628.17 C67.5726519,628.167354 68.1591592,627.921438 68.5904941,627.486352 C69.021829,627.051266 69.2626579,626.462652 69.2600218,625.85 L69.2600218,603.53 C69.2179152,602.455401 68.8710915,601.41493 68.26,600.53 L63.01,593.46 Z M52.88,594 L60.12,594 C60.6124045,594.050795 61.0684762,594.282394 61.4,594.65 L66.5,601.5 L52.88,601.5 L52.88,594 Z M42.98,594.65 C43.3405726,594.277052 43.8233218,594.046327 44.34,594 L50.88,594 L50.88,601.5 L37.38,601.5 L42.98,594.65 Z M67.2600006,625.85 C67.2603308,626.019206 67.1288759,626.159425 66.96,626.17 L36.81,626.17 C36.637186,626.164597 36.5,626.022898 36.5,625.85 L36.5,603.5 L67.2600006,603.5 L67.2600006,625.85 L67.2600006,625.85 Z M59.86,619 L61.53,619.87 L57.78,621 L56.59,617.23 L58.09,618.01 C59.1835393,615.727483 59.0275836,613.043208 57.6770672,610.90269 C56.3265509,608.762172 53.9709468,607.46572 51.44,607.47 C51.24,607.47 51.04,607.47 50.84,607.47 C50.4827344,607.500368 50.1364065,607.337829 49.9314746,607.043612 C49.7265427,606.749395 49.6941409,606.368197 49.8464746,606.043612 C49.9988083,605.719027 50.3127344,605.500368 50.67,605.47 C50.9264425,605.454831 51.1835575,605.454831 51.44,605.47 C54.6879526,605.456028 57.7109711,607.126844 59.4270824,609.884443 C61.1431937,612.642042 61.307048,616.092175 59.86,619 Z M54.07,623.16 C54.0920876,623.425408 54.0073914,623.688663 53.8346882,623.891401 C53.6619851,624.09414 53.415544,624.219611 53.15,624.240005 C52.9,624.240005 52.64,624.240005 52.39,624.240005 C49.1646273,624.243476 46.1641938,622.587836 44.44745,619.857299 C42.7307062,617.126762 42.5390083,613.705213 43.94,610.8 L42.23,609.91 L45.99,608.72 L47.17,612.49 L45.71,611.73 C45.2555987,612.700281 45.0200402,613.758587 45.02,614.83 C45.0199851,618.903587 48.3164284,622.208975 52.39,622.22 C52.59,622.22 52.8,622.22 53,622.22 C53.5384692,622.179091 54.0121494,622.573087 54.07,623.11 L54.07,623.16 Z" fill="#000000" fill-rule="nonzero"></path>
                    <path d="M50.5,442 C31.1700338,442 15.5,457.670034 15.5,477 C15.5,496.329966 31.1700338,512 50.5,512 C69.8299662,512 85.5,496.329966 85.5,477 C85.5,467.717423 81.8125106,458.815036 75.2487373,452.251263 C68.6849641,445.687489 59.7825771,442 50.5,442 Z M50.5,510 C32.2746033,510 17.5,495.225397 17.5,477 C17.5,458.774603 32.2746033,444 50.5,444 C68.7253967,444 83.5,458.774603 83.5,477 C83.5,485.752144 80.0232243,494.145823 73.8345238,500.334524 C67.6458233,506.523224 59.2521442,510 50.5,510 Z M63.5,471.1 C66.0496273,466.473004 64.8143533,460.675736 60.6,457.49 C60.34,457.29 60.07,457.11 59.8,456.93 C58.6253424,456.156984 57.3212607,455.601479 55.95,455.29 C54.5864552,454.972829 53.1758448,454.911793 51.79,455.11 C49.3923195,455.514532 47.16852,456.621212 45.4,458.29 C44.2370382,459.317837 43.2268382,460.506506 42.4,461.82 C41.7959267,462.864912 42.1065543,464.199298 43.11,464.87 L44.71,465.87 C45.7298176,466.519518 47.079766,466.255685 47.78,465.27 C48.55,464.16 50.15,462.27 51.15,461.76 C52.7145616,461.005728 54.5521136,461.08073 56.05,461.96 L56.19,462.05 C57.5866533,462.93596 58.3940819,464.508724 58.3,466.16 C58.22,467.66 57.18,469.16 55.73,471.1 L37.73,471.1 C37.1298645,471.094347 36.5532381,471.333014 36.1326483,471.761148 C35.7120584,472.189282 35.4836794,472.77006 35.5,473.37 L35.5,494.11 C35.5,495.330549 36.4894507,496.32 37.71,496.32 L63.5,496.32 C64.7205493,496.32 65.71,495.330549 65.71,494.11 L65.71,473.29 C65.7070258,472.702754 65.4693906,472.14107 65.05,471.73 C64.6402372,471.318357 64.0807528,471.090953 63.5,471.1 Z M63.69,494.1 C63.6849341,494.213815 63.5938154,494.304934 63.48,494.31 L37.71,494.31 C37.5940202,494.31 37.5,494.21598 37.5,494.1 L37.5,473.37 C37.5050659,473.256185 37.5961846,473.165066 37.71,473.16 L56.23,473.16 C56.5626261,473.160501 56.8737296,472.995579 57.06,472.72 C58.8,470.37 60.17,468.51 60.28,466.33 C60.4369184,463.967547 59.284857,461.709506 57.28,460.45 L57.06,460.31 C55.0023668,459.07581 52.4619546,458.959311 50.3,460 C48.49,460.83 46.36,463.84 46.13,464.18 C46.0482171,464.28322 45.9021734,464.308993 45.79,464.24 L44.19,463.24 C44.0798434,463.164119 44.0452364,463.017039 44.11,462.9 C44.8320539,461.786244 45.7035147,460.77683 46.7,459.9 C48.1823862,458.483307 50.0508171,457.536914 52.07,457.18 C54.394557,456.861742 56.75539,457.402174 58.71,458.7 L59.4,459.18 C62.8318698,461.799045 63.7902074,466.556507 61.64,470.3 C61.5843677,470.383293 61.5342601,470.470146 61.49,470.56 L61.49,470.56 C60.79,471.56 60.63,472.05 60.9,472.56 C61.0757548,472.90944 61.4391129,473.124329 61.83,473.11 L61.83,473.11 L63.48,473.11 C63.53,473.11 63.59,473.11 63.62,473.17 C63.6607253,473.200376 63.6833065,473.249302 63.68,473.3 L63.69,494.1 Z M50.14,475 C47.6252609,474.955393 45.5492452,476.955347 45.5,479.47 C45.5046911,480.701203 46.02736,481.873579 46.94,482.7 L46.06,489.7 C46.0251795,489.987095 46.1163537,490.275205 46.31,490.49 C46.4995698,490.705784 46.7727728,490.829636 47.06,490.83 L53.23,490.83 C53.5172272,490.829636 53.7904302,490.705784 53.98,490.49 C54.1700509,490.273526 54.2575191,489.985609 54.22,489.7 L53.35,482.7 C54.2595835,481.871367 54.7816208,480.700408 54.79,479.47 C54.7353232,476.95376 52.6564383,474.955348 50.14,475 L50.14,475 Z M51.72,481.45 C51.4098357,481.660956 51.2438138,482.027749 51.29,482.4 L52.1,488.84 L48.19,488.84 L48.99,482.4 C49.0383375,482.029756 48.8763793,481.663422 48.57,481.45 C47.8995501,481.005823 47.4974488,480.254232 47.4999879,479.45 C47.5859834,478.052273 48.7446311,476.962711 50.145,476.962711 C51.5453689,476.962711 52.7040166,478.052273 52.7900121,479.45 C52.7925512,480.254232 52.3904499,481.005823 51.72,481.45 Z" fill="#000000" fill-rule="nonzero"></path>
                    <circle fill="#00AFAB" cx="50" cy="313" r="50"></circle>
                    <g transform="translate(15.500000, 130.000000)" fill="#000000" fill-rule="nonzero">
                        <path d="M35,0 C15.7,0 0,15.7 0,35 C0,54.3 15.7,70 35,70 C54.3,70 70,54.3 70,35 C70,15.7 54.3,0 35,0 Z M35,68 C16.8,68 2,53.2 2,35 C2,16.8 16.8,2 35,2 C53.2,2 68,16.8 68,35 C68,53.2 53.2,68 35,68 Z"></path>
                        <g transform="translate(14.000000, 14.000000)">
                            <path d="M38.6,4.9 L35.3,4.9 L35.3,3.6 C35.3,2 34,0.7 32.4,0.7 C30.8,0.7 29.5,2 29.5,3.6 L29.5,4.9 L24.2,4.9 L24.2,3.6 C24.2,2 22.9,0.7 21.3,0.7 C19.7,0.7 18.4,2 18.4,3.6 L18.4,4.9 L13.1,4.9 L13.1,3.6 C13.1,2 11.8,0.7 10.2,0.7 C8.6,0.7 7.3,2 7.3,3.6 L7.3,4.9 L4,4.9 C2,4.9 0.4,6.5 0.4,8.5 L0.4,36.1 C0.4,38.1 2,39.7 4,39.7 L23.3,39.7 C23.7,39.7 24.1,39.3 24.1,38.9 C24.1,38.5 23.7,38.1 23.3,38.1 L4.1,38.1 C3,38.1 2.2,37.2 2.2,36.2 L2.2,14.8 L40.5,14.8 L40.5,26.4 C40.5,26.8 40.9,27.2 41.3,27.2 C41.7,27.2 42.1,26.8 42.1,26.4 L42.1,8.5 C42.2,6.5 40.6,4.9 38.6,4.9 Z M2.2,8.5 C2.2,7.4 3.1,6.6 4.1,6.6 L7.4,6.6 L7.4,7.9 C7.4,9.5 8.7,10.8 10.3,10.8 C11.9,10.8 13.2,9.5 13.2,7.9 L13.2,6.6 L18.5,6.6 L18.5,7.9 C18.5,9.5 19.8,10.8 21.4,10.8 C23,10.8 24.3,9.5 24.3,7.9 L24.3,6.6 L29.6,6.6 L29.6,7.9 C29.6,9.5 30.9,10.8 32.5,10.8 C34.1,10.8 35.4,9.5 35.4,7.9 L35.4,6.6 L38.7,6.6 C39.8,6.6 40.6,7.5 40.6,8.5 L40.6,13.2 L2.2,13.2 L2.2,8.5 Z M33.7,7.8 C33.7,8.5 33.1,9.1 32.4,9.1 C31.7,9.1 31.1,8.5 31.1,7.8 L31.1,3.7 C31.1,3 31.7,2.4 32.4,2.4 C33.1,2.4 33.7,3 33.7,3.7 L33.7,7.8 Z M22.6,7.8 C22.6,8.5 22,9.1 21.3,9.1 C20.6,9.1 20,8.5 20,7.8 L20,3.7 C20,3 20.6,2.4 21.3,2.4 C22,2.4 22.6,3 22.6,3.7 L22.6,7.8 Z M11.6,7.8 C11.6,8.5 11,9.1 10.3,9.1 C9.6,9.1 9,8.5 9,7.8 L9,3.7 C9,3 9.6,2.4 10.3,2.4 C11,2.4 11.6,3 11.6,3.7 L11.6,7.8 Z"></path>
                            <path d="M20.1,19.5 C20.1,18.7 19.4,18 18.6,18 L15.8,18 C15,18 14.3,18.7 14.3,19.5 L14.3,21.6 C14.3,22.4 15,23.1 15.8,23.1 L18.6,23.1 C19.4,23.1 20.1,22.4 20.1,21.6 L20.1,19.5 Z M18.5,19.7 L18.5,21.5 L16,21.5 L16,19.7 L18.5,19.7 Z"></path>
                            <path d="M11.9,19.5 C11.9,18.7 11.2,18 10.4,18 L7.6,18 C6.8,18 6.1,18.7 6.1,19.5 L6.1,21.6 C6.1,22.4 6.8,23.1 7.6,23.1 L10.4,23.1 C11.2,23.1 11.9,22.4 11.9,21.6 L11.9,19.5 Z M10.2,19.7 L10.2,21.5 L7.7,21.5 L7.7,19.7 L10.2,19.7 Z"></path>
                            <path d="M35.2,23.1 C36,23.1 36.7,22.4 36.7,21.6 L36.7,19.5 C36.7,18.7 36,18 35.2,18 L32.4,18 C31.6,18 30.9,18.7 30.9,19.5 L30.9,21.6 C30.9,22.4 31.6,23.1 32.4,23.1 L35.2,23.1 Z M32.5,21.5 L32.5,19.7 L35,19.7 L35,21.5 L32.5,21.5 Z"></path>
                            <path d="M20.1,25.7 C20.1,24.9 19.4,24.2 18.6,24.2 L15.8,24.2 C15,24.2 14.3,24.9 14.3,25.7 L14.3,27.8 C14.3,28.6 15,29.3 15.8,29.3 L18.6,29.3 C19.4,29.3 20.1,28.6 20.1,27.8 L20.1,25.7 Z M18.5,25.9 L18.5,27.7 L16,27.7 L16,25.9 L18.5,25.9 Z"></path>
                            <path d="M11.9,25.7 C11.9,24.9 11.2,24.2 10.4,24.2 L7.6,24.2 C6.8,24.2 6.1,24.9 6.1,25.7 L6.1,27.8 C6.1,28.6 6.8,29.3 7.6,29.3 L10.4,29.3 C11.2,29.3 11.9,28.6 11.9,27.8 L11.9,25.7 Z M10.2,25.9 L10.2,27.7 L7.7,27.7 L7.7,25.9 L10.2,25.9 Z"></path>
                            <path d="M18.6,30.4 L15.8,30.4 C15,30.4 14.3,31.1 14.3,31.9 L14.3,34 C14.3,34.8 15,35.5 15.8,35.5 L18.6,35.5 C19.4,35.5 20.1,34.8 20.1,34 L20.1,31.9 C20.1,31.1 19.5,30.4 18.6,30.4 Z M18.5,32.1 L18.5,33.9 L16,33.9 L16,32.1 L18.5,32.1 Z"></path>
                            <path d="M24.1,23.1 L26.9,23.1 C27.7,23.1 28.4,22.4 28.4,21.6 L28.4,19.5 C28.4,18.7 27.7,18 26.9,18 L24.1,18 C23.3,18 22.6,18.7 22.6,19.5 L22.6,21.6 C22.6,22.4 23.3,23.1 24.1,23.1 Z M24.3,21.5 L24.3,19.7 L26.8,19.7 L26.8,21.5 L24.3,21.5 Z"></path>
                            <path d="M22.6,27.8 C22.6,28.6 23.3,29.3 24.1,29.3 C24.5,29.3 24.9,28.9 24.9,28.5 C24.9,28.1 24.6,27.8 24.2,27.7 L24.2,25.9 L26.8,25.9 C27.2,25.9 27.6,25.5 27.6,25.1 C27.6,24.7 27.2,24.3 26.8,24.3 L24,24.3 C23.2,24.3 22.5,25 22.5,25.8 L22.5,27.8 L22.6,27.8 Z"></path>
                            <path d="M10.4,30.4 L7.6,30.4 C6.8,30.4 6.1,31.1 6.1,31.9 L6.1,34 C6.1,34.8 6.8,35.5 7.6,35.5 L10.4,35.5 C11.2,35.5 11.9,34.8 11.9,34 L11.9,31.9 C11.9,31.1 11.2,30.4 10.4,30.4 Z M10.2,32.1 L10.2,33.9 L7.7,33.9 L7.7,32.1 L10.2,32.1 Z"></path>
                            <path d="M33.1,24.2 C28.1,24.2 24,28.3 24,33.3 C24,38.3 28.1,42.4 33.1,42.4 C38.1,42.4 42.2,38.3 42.2,33.3 C42.2,28.3 38.1,24.2 33.1,24.2 Z M40.6,33.3 C40.6,37.4 37.3,40.8 33.1,40.8 C29,40.8 25.6,37.5 25.6,33.3 C25.6,29.1 28.9,25.8 33.1,25.8 C37.3,25.8 40.6,29.2 40.6,33.3 Z"></path>
                            <path d="M36.9,33.4 L33.6,33.8 L33,28.5 C32.9,28.1 32.6,27.7 32.1,27.8 C31.9,27.8 31.7,27.9 31.5,28.1 C31.4,28.3 31.3,28.5 31.3,28.7 L32,34.8 C32,35 32.1,35.2 32.3,35.3 C32.4,35.4 32.6,35.5 32.8,35.5 C32.8,35.5 32.9,35.5 32.9,35.5 L37,35.1 C37.4,35 37.7,34.7 37.7,34.2 C37.8,33.7 37.4,33.4 36.9,33.4 Z"></path>
                        </g>
                    </g>
                    <g transform="translate(17.500000, 0.000000)">
                        <g transform="translate(15.500000, 17.000000)" fill="#000000" fill-rule="nonzero">
                            <path d="M34.5988201,5.88516858 L28.4867257,5.88516858 C28.8141593,5.34069406 29.0324484,4.68732462 29.0324484,3.81616538 C29.0324484,1.63826728 27.3952802,0.00484369732 25.4306785,0.00484369732 C21.9380531,0.00484369732 19.5368732,3.05390105 18.4454277,5.01400934 C17.3539823,3.16279595 14.8436578,0.00484369732 11.460177,0.00484369732 C9.38643068,-0.104051208 7.74926254,1.63826728 7.74926254,3.70727048 C7.74926254,4.57842972 7.96755162,5.23179915 8.29498525,5.77627368 L2.2920354,5.77627368 C0.982300885,5.88516858 0,6.86522273 0,8.17196159 L0,12.9633374 C0,14.1611814 0.982300885,15.1412355 2.2920354,15.1412355 L2.61946903,15.1412355 C2.51032448,15.3590253 2.51032448,15.5768152 2.51032448,15.9034999 L2.51032448,30.713207 C2.51032448,32.0199459 3.49262537,33 4.80235988,33 L32.1976401,33 C33.5073746,33 34.4896755,32.0199459 34.4896755,30.713207 L34.4896755,15.9034999 C34.4896755,15.6857101 34.4896755,15.3590253 34.380531,15.1412355 L34.7079646,15.1412355 C36.0176991,15.1412355 37,14.1611814 37,12.8544425 L37,8.17196159 C36.8908555,6.86522273 35.9085546,5.88516858 34.5988201,5.88516858 Z M25.4306785,1.74716218 C26.4129794,1.74716218 27.2861357,2.61832142 27.2861357,3.81616538 C27.2861357,5.66737877 25.8672566,5.77627368 25.4306785,5.77627368 L19.9734513,5.77627368 C21.0648968,4.1428501 22.920354,1.74716218 25.4306785,1.74716218 Z M11.460177,1.74716218 C13.9705015,1.74716218 15.9351032,4.251745 16.9174041,5.77627368 L11.460177,5.77627368 C11.0235988,5.77627368 9.60471976,5.66737877 9.60471976,3.81616538 C9.60471976,2.61832142 10.3687316,1.74716218 11.460177,1.74716218 Z M21.1740413,14.3789712 L21.1740413,14.3789712 L21.1740413,14.3789712 L21.1740413,31.4754713 L15.7168142,31.4754713 L15.7168142,7.40969726 L17.1356932,7.40969726 L19.7551622,7.40969726 L21.1740413,7.40969726 L21.1740413,14.3789712 Z M1.5280236,12.8544425 L1.5280236,8.17196159 C1.5280236,7.73638197 1.85545723,7.40969726 2.2920354,7.40969726 L11.460177,7.40969726 L11.460177,7.40969726 L14.1887906,7.40969726 L14.1887906,13.7256018 L2.2920354,13.7256018 C1.85545723,13.6167069 1.5280236,13.2900221 1.5280236,12.8544425 Z M4.03834808,30.713207 L4.03834808,15.9034999 C4.03834808,15.4679202 4.36578171,15.1412355 4.80235988,15.1412355 L14.1887906,15.1412355 L14.1887906,31.4754713 L4.80235988,31.4754713 C4.36578171,31.4754713 4.03834808,31.1487866 4.03834808,30.713207 Z M32.8525074,15.9034999 L32.8525074,30.713207 C32.8525074,31.1487866 32.5250737,31.4754713 32.0884956,31.4754713 L22.7020649,31.4754713 L22.7020649,15.1412355 L32.0884956,15.1412355 C32.5250737,15.1412355 32.8525074,15.4679202 32.8525074,15.9034999 Z M35.3628319,12.8544425 C35.3628319,13.2900221 35.0353982,13.6167069 34.5988201,13.6167069 L32.1976401,13.6167069 L32.1976401,13.6167069 L22.8112094,13.6167069 L22.8112094,7.40969726 L25.539823,7.40969726 L25.539823,7.40969726 L34.7079646,7.40969726 C35.1445428,7.40969726 35.4719764,7.73638197 35.4719764,8.17196159 L35.3628319,12.8544425 L35.3628319,12.8544425 Z"></path>
                        </g>
                        <circle stroke="#1D1D1B" stroke-width="2" cx="34" cy="34" r="34"></circle>
                    </g>
                    <text transform="matrix(1 0 0 1 120 0)" class="st5-works-mobile st3-works-mobile">TAG 1</text>
                    <text transform="matrix(1 0 0 1 120 17)" class="st2-works-mobile st3-works-mobile st4-works-mobile">DEIN TESTPAKET</text>
                    <text transform="matrix(1 0 0 1 120 37)" class="st2-works-mobile st3-works-mobile">Wir zahlen die Produkte,</text>
                    <text transform="matrix(1 0 0 1 120 52)" class="st2-works-mobile st3-works-mobile">Du nur den Versand.</text>
                    <text transform="matrix(1 0 0 1 120 67)" class="st2-works-mobile st3-works-mobile"></text>
                    <text transform="matrix(1 0 0 1 120 82)" class="st2-works-mobile st3-works-mobile"></text>

                    <text transform="matrix(1 0 0 1 120 130)" class="st5-works-mobile st3-works-mobile">TAG 3</text>
                    <text transform="matrix(1 0 0 1 120 147)" class="st2-works-mobile st3-works-mobile st4-works-mobile">DEINE TESTPHASE</text>
                    <text transform="matrix(1 0 0 1 120 167)" class="st2-works-mobile st3-works-mobile">Dein Testpaket ist da</text>
                    <text transform="matrix(1 0 0 1 120 182)" class="st2-works-mobile st3-works-mobile">und Dein flexibles</text>
                    <text transform="matrix(1 0 0 1 120 197)" class="st2-works-mobile st3-works-mobile">Windel-Abo wird</text>
                    <text transform="matrix(1 0 0 1 120 212)" class="st2-works-mobile st3-works-mobile">automatisch erstellt.</text>

                    <text transform="matrix(1 0 0 1 120 440)" class="st5-works-mobile st3-works-mobile">TAG 10</text>
                    <text transform="matrix(1 0 0 1 120 457)" class="st2-works-mobile st3-works-mobile st4-works-mobile">DEINE FLEXIBILITÄT</text>
                    <text transform="matrix(1 0 0 1 120 477)" class="st2-works-mobile st3-works-mobile">Passe Dein Abo und Liefertermin</text>
                    <text transform="matrix(1 0 0 1 120 492)" class="st2-works-mobile st3-works-mobile">bis zu 5 Tage vor Lieferung</text>
                    <text transform="matrix(1 0 0 1 120 507)" class="st2-works-mobile st3-works-mobile">der ersten Monatsbox an.</text>
                    <text transform="matrix(1 0 0 1 120 522)" class="st2-works-mobile st3-works-mobile"></text>

                    <text transform="matrix(1 0 0 1 120 575)" class="st5-works-mobile st3-works-mobile">TAG 14</text>
                    <text transform="matrix(1 0 0 1 120 592)" class="st2-works-mobile st3-works-mobile st4-works-mobile">DEIN WINDEL-ABO</text>
                    <text transform="matrix(1 0 0 1 120 612)" class="st2-works-mobile st3-works-mobile">Erhalte Deine erste</text>
                    <text transform="matrix(1 0 0 1 120 627)" class="st2-works-mobile st3-works-mobile">LILLYDOO Monatsbox.</text>
                    <text transform="matrix(1 0 0 1 120 642)" class="st2-works-mobile st3-works-mobile"></text>
                    <text transform="matrix(1 0 0 1 120 657)" class="st2-works-mobile st3-works-mobile"></text>

                    <text transform="matrix(1 0 0 1 50 305)" class="st1-works-mobile st3-works-mobile" text-anchor="middle">7</text>
                    <text transform="matrix(1 0 0 1 50 320)" class="st1-works-mobile st3-works-mobile" text-anchor="middle">TAGE</text>
                    <text transform="matrix(1 0 0 1 50 335)" class="st1-works-mobile st3-works-mobile" text-anchor="middle">TESTPHASE</text>
                </g>
            </g>
        </g>
    </g>
</svg>